<svg width="128" height="128" viewBox="0 0 128 128" fill="none" xmlns="http://www.w3.org/2000/svg">
    <path d="M103.524 79.2381C103.524 106.169 81.6924 128 54.7619 128C27.8314 128 6 106.169 6 79.2381C6 52.3076 27.8314 30.4762 54.7619 30.4762C81.6924 30.4762 103.524 52.3076 103.524 79.2381Z" fill="#EE5544" fill-opacity="0.1"/>
    <path fill-rule="evenodd" clip-rule="evenodd" d="M54.7619 121.905C78.3261 121.905 97.4286 102.802 97.4286 79.2381C97.4286 55.6739 78.3261 36.5714 54.7619 36.5714C31.1978 36.5714 12.0952 55.6739 12.0952 79.2381C12.0952 102.802 31.1978 121.905 54.7619 121.905ZM54.7619 128C81.6924 128 103.524 106.169 103.524 79.2381C103.524 52.3076 81.6924 30.4762 54.7619 30.4762C27.8314 30.4762 6 52.3076 6 79.2381C6 106.169 27.8314 128 54.7619 128Z" fill="#EE5544"/>
    <path d="M112.667 64C112.667 90.9305 90.8352 112.762 63.9048 112.762C36.9743 112.762 15.1429 90.9305 15.1429 64C15.1429 37.0695 36.9743 15.2381 63.9048 15.2381C90.8352 15.2381 112.667 37.0695 112.667 64Z" fill="#CCCCCC" fill-opacity="0.1"/>
    <path fill-rule="evenodd" clip-rule="evenodd" d="M63.9048 106.667C87.4689 106.667 106.571 87.5642 106.571 64C106.571 40.4359 87.4689 21.3333 63.9048 21.3333C40.3406 21.3333 21.2381 40.4359 21.2381 64C21.2381 87.5642 40.3406 106.667 63.9048 106.667ZM63.9048 112.762C90.8352 112.762 112.667 90.9305 112.667 64C112.667 37.0695 90.8352 15.2381 63.9048 15.2381C36.9743 15.2381 15.1429 37.0695 15.1429 64C15.1429 90.9305 36.9743 112.762 63.9048 112.762Z" fill="#666666"/>
    <path d="M121.81 48.7619C121.81 75.6924 99.9781 97.5238 73.0476 97.5238C46.1172 97.5238 24.2857 75.6924 24.2857 48.7619C24.2857 21.8314 46.1172 0 73.0476 0C99.9781 0 121.81 21.8314 121.81 48.7619Z" fill="#33AAFF" fill-opacity="0.1"/>
    <path fill-rule="evenodd" clip-rule="evenodd" d="M73.0476 91.4286C96.6118 91.4286 115.714 72.3261 115.714 48.7619C115.714 25.1978 96.6118 6.09524 73.0476 6.09524C49.4835 6.09524 30.381 25.1978 30.381 48.7619C30.381 72.3261 49.4835 91.4286 73.0476 91.4286ZM73.0476 97.5238C99.9781 97.5238 121.81 75.6924 121.81 48.7619C121.81 21.8314 99.9781 0 73.0476 0C46.1172 0 24.2857 21.8314 24.2857 48.7619C24.2857 75.6924 46.1172 97.5238 73.0476 97.5238Z" fill="#33AAFF"/>
</svg>